<svg width="419" height="589" viewBox="0 0 419 589" fill="none" xmlns="http://www.w3.org/2000/svg">
<g id="Group 2">
<path id="Path Copy" opacity="0.0991676" d="M-78.245 684.353L-527.256 418.729C-541.551 410.683 -553.804 397.501 -539.875 388.852L-89.2674 128.89C-82.5126 124.696 -72.2495 121.944 -65.3637 125.954L405.901 399.781C420.197 408.089 422.762 431.231 408.52 439.618L-19.075 683.933C-37.3366 694.537 -59.8353 694.697 -78.245 684.353Z" fill="#6862E6"/>
<path id="Path Copy 2" opacity="0.0991676" d="M-78.245 308.353L-527.256 42.7295C-541.551 34.6835 -553.804 21.5006 -539.875 12.8518L-89.2674 -247.11C-82.5126 -251.304 -72.2494 -254.056 -65.3637 -250.046L405.901 23.7808C420.197 32.0889 422.762 55.231 408.52 63.6177L-19.075 307.933C-37.3366 318.537 -59.8353 318.697 -78.245 308.353Z" stroke="#1E1F36"/>
<path id="Path Copy 3" opacity="0.0991676" d="M-78.245 383.353L-527.256 117.729C-541.551 109.683 -553.804 96.5006 -539.875 87.8518L-89.2674 -172.11C-82.5126 -176.304 -72.2494 -179.056 -65.3637 -175.046L405.901 98.7808C420.197 107.089 422.762 130.231 408.52 138.618L-19.075 382.933C-37.3366 393.537 -59.8353 393.697 -78.245 383.353Z" stroke="#1E1F36"/>
</g>
</svg>
